<svg width="14" height="13" viewBox="0 0 14 13" fill="none" xmlns="http://www.w3.org/2000/svg">
<path d="M13.75 5.625C13.75 5.29348 13.6183 4.97554 13.3839 4.74112C13.1495 4.5067 12.8315 4.375 12.5 4.375H8.55L9.15 1.51875C9.1625 1.45625 9.16875 1.3875 9.16875 1.31875C9.16875 1.0625 9.0625 0.825 8.89375 0.65625L8.23125 0L4.11875 4.1125C3.8875 4.34375 3.75 4.65625 3.75 5V11.25C3.75 11.5815 3.8817 11.8995 4.11612 12.1339C4.35054 12.3683 4.66848 12.5 5 12.5H10.625C11.1438 12.5 11.5875 12.1875 11.775 11.7375L13.6625 7.33125C13.7188 7.1875 13.75 7.0375 13.75 6.875V5.625ZM0 12.5H2.5V5H0V12.5Z" fill="#5C5C5C"/>
</svg>
